<svg width="1006" height="628" viewBox="0 0 1006 628" fill="none" xmlns="http://www.w3.org/2000/svg">
<g clip-path="url(#clip0_31_3)">
<path d="M515.519 84.497C518.66 85.882 521.118 88.383 523.65 90.644C524.339 91.173 525.029 91.697 525.731 92.221C527.462 93.828 528.491 95.405 529.674 97.425C530.986 99.563 532.575 101.466 534.398 103.191C549.612 119.144 557.188 143.905 560.021 165.402C562.615 165.103 564.764 164.767 567.043 163.517C567.672 163.182 567.672 163.182 568.312 162.839C568.77 162.583 568.77 162.583 569.236 162.322V164.786C567.838 166.061 567.838 166.061 566.002 167.323C565.402 167.744 564.801 168.167 564.185 168.598C562.461 169.707 562.461 169.707 561.05 170.36C559.781 170.91 559.781 170.91 559.387 172.793H558.155C558.015 173.126 557.875 173.458 557.731 173.803C556.678 175.7 555.274 177.222 553.845 178.842C541.341 193.378 533.703 210.44 534.627 229.904C535.05 235.189 536.746 239.821 540.497 243.64C548.135 249.59 557.251 251.955 566.798 252.324C567.32 252.35 567.839 252.375 568.381 252.401C577.867 252.638 586.921 251.299 595.729 248.016C596.382 247.788 597.029 247.56 597.7 247.326C620.059 238.887 634.165 214.865 643.589 194.17C646.397 187.64 648.448 180.865 650.549 174.09C650.922 172.925 651.294 171.767 651.667 170.603C654.647 162.35 654.647 162.35 655.477 153.788C654.447 152.759 653.147 152.956 651.737 152.839C650.764 152.759 650.764 152.759 649.773 152.677C649.077 152.623 648.381 152.569 647.666 152.515C646.958 152.46 646.25 152.406 645.517 152.349C636.77 151.702 628.147 152.017 619.339 152.419C617.004 152.522 614.688 152.585 612.378 152.553V153.169C609.49 152.821 606.619 152.436 603.755 151.938V150.706C608.135 149.769 612.502 149.073 616.936 148.513C617.823 148.396 617.823 148.396 618.729 148.278C622.289 147.82 625.874 147.453 629.446 147.176C630.955 147.049 630.955 147.049 632.705 146.393C634.078 146.238 635.452 146.109 636.825 145.994C637.657 145.921 638.495 145.847 639.326 145.773C640.626 145.66 641.932 145.548 643.231 145.441C650.376 144.849 656.847 143.495 663.497 140.852C665.657 144.289 664.187 148.182 663.497 151.939C663.347 152.759 663.347 152.759 663.197 153.59C659.767 172.438 654.827 191.04 645.707 207.978C644.949 209.383 644.216 210.8 643.483 212.216C635.291 227.738 624.019 241.597 608.682 250.467C608.307 250.688 607.931 250.908 607.543 251.138C590.173 261.178 567.629 261.363 548.658 256.448C545.338 255.53 542.19 254.452 539.049 252.931C538.328 252.581 538.328 252.581 537.589 252.228C532.039 249.186 530.259 243.667 528.596 237.877C527.5 233.565 527.703 229.253 527.925 224.819C528.001 223.309 528.052 221.8 528.1 220.291C528.137 219.312 528.174 218.339 528.214 217.359C528.231 216.917 528.248 216.472 528.265 216.017C528.424 212.974 529.017 210.251 529.811 207.332C529.946 206.513 530.075 205.693 530.196 204.868C531.724 197.908 536.079 191.379 540.298 185.773C540.683 185.218 541.068 184.665 541.468 184.092C543.55 181.117 545.546 178.672 548.305 176.331C550.566 174.144 551.157 172.746 551.231 169.617C550.991 166.408 550.393 163.396 549.519 160.255C549.052 158.561 548.644 156.885 548.262 155.173C543.661 134.477 534.834 115.136 519.374 100.23C518.142 98.961 518.142 98.961 518.142 97.73H516.91C516.3 96.812 516.3 96.812 515.678 95.882C512.592 96.121 510.948 97.742 508.841 99.811C508.493 100.143 508.145 100.477 507.782 100.815C506.716 101.832 505.657 102.86 504.603 103.889C503.992 104.475 503.384 105.059 502.768 105.651C498.968 109.359 495.561 113.227 492.297 117.415C491.863 117.956 491.428 118.493 490.979 119.054C477.489 136.239 468.989 155.21 470.837 177.323C471.163 179.823 471.816 182.183 472.568 184.591C472.767 185.238 472.767 185.238 472.97 185.903C478.002 202.041 485.904 223.845 501.488 232.653C503.508 233.454 505.522 234.039 507.647 234.501C508.116 234.606 508.584 234.711 509.064 234.819C510.758 235.123 512.36 235.224 514.078 235.269C515.014 235.299 515.014 235.299 515.969 235.33C517.275 235.368 518.587 235.403 519.899 235.436C520.521 235.457 521.143 235.478 521.784 235.5C522.634 235.523 522.634 235.523 523.502 235.547C524.894 235.734 524.894 235.734 526.126 236.964C525.923 237.37 525.719 237.777 525.51 238.195C514.3 239.976 502.535 238.343 492.434 233.077C490.407 231.851 490.407 231.851 487.931 232.036C487.662 232.806 487.662 232.806 487.387 233.594C484.775 240.739 481.536 246.837 475.006 251.149C471.871 252.584 468.601 253.526 465.274 254.457C464.073 254.805 462.891 255.208 461.708 255.621C446.309 260.813 425.921 256.674 411.57 249.923C406.784 247.268 402.392 243.948 398.019 240.684C397.548 240.357 397.076 240.031 396.59 239.692C396.247 239.41 395.906 239.127 395.555 238.836V237.604C395.201 237.461 394.847 237.317 394.483 237.169C381.795 229.9 373.171 206.063 369.537 192.943C368.453 188.841 367.486 184.751 366.889 180.501C366.666 178.949 366.406 177.422 366.119 175.875C364.333 165.712 364.573 155.549 364.751 145.201C366.599 144.585 366.599 144.585 368.41 145.432C369.032 145.762 369.654 146.091 370.295 146.43C372.013 146.953 373.621 147.144 375.413 147.218C375.92 147.241 376.43 147.264 376.947 147.287C377.482 147.309 378.019 147.331 378.567 147.353C382.793 147.542 387.006 147.781 391.194 148.166C392.703 148.258 394.163 148.267 395.672 148.241C398.727 148.226 401.634 148.652 404.665 149.165C405.435 149.289 405.435 149.289 406.217 149.416C408.435 149.781 410.609 150.174 412.808 150.74V151.972L414.656 152.588C409.186 154.085 404.246 154.67 398.579 154.479C397.853 154.463 397.126 154.447 396.374 154.43C394.083 154.376 391.792 154.309 389.476 154.241C387.911 154.202 386.347 154.164 384.776 154.126C380.963 154.034 377.138 153.93 373.319 153.817C373.234 159.2 373.378 164.473 374.052 169.77C374.134 170.423 374.215 171.082 374.299 171.753C377.514 196.207 386.741 221.83 406.637 237.66C420.742 248.316 439.344 250.534 456.467 249.24C459.781 248.74 462.688 247.663 465.706 246.16C466.328 245.847 466.95 245.532 467.585 245.212C473.868 241.621 479.657 234.741 481.629 227.657C481.75 225.372 481.278 224.639 479.959 222.803C474.28 214.427 470.227 205.68 466.47 196.256C465.749 194.464 465.01 192.677 464.259 190.891C463.809 189.801 463.359 188.717 462.91 187.627C462.703 187.137 462.498 186.647 462.288 186.142C461.056 183.118 460.384 180.42 460.181 177.149L460.797 176.533C460.813 175.64 460.789 174.747 460.749 173.848C459.757 142.927 478.92 119.09 498.137 96.854C498.969 95.875 499.788 94.883 500.601 93.891C503.995 89.894 509.717 83.605 515.507 84.775L515.519 84.497Z" fill="#FBFDFE"/>
<path d="M187.125 313.6C187.125 140.404 328.527 0 502.955 0C677.387 0 818.787 140.404 818.787 313.6C818.787 486.796 677.387 627.2 502.955 627.2C328.527 627.2 187.125 486.796 187.125 313.6Z" fill="#FAC202"/>
<path d="M502.968 63.594C405.82 63.594 321.662 119.058 280.281 200H119.562C53.546 200 0 253.515 0 319.532C0 385.548 53.546 439.063 119.562 439.063H286.75C330.048 513.506 410.644 563.59 502.968 563.59C595.293 563.59 675.857 513.506 719.157 439.063H886.377C952.387 439.063 1005.91 385.548 1005.91 319.532C1005.91 253.515 952.387 200 886.377 200H725.627C684.247 119.058 600.117 63.594 502.968 63.594Z" fill="#090909"/>
<path d="M236.286 295.219V297.282C239.286 293.323 242.556 290.427 246.098 288.594C249.681 286.719 253.786 285.782 258.411 285.782C262.911 285.782 266.931 286.761 270.473 288.719C274.015 290.677 276.661 293.448 278.411 297.032C279.536 299.115 280.265 301.365 280.598 303.782C280.931 306.198 281.098 309.282 281.098 313.032V344.782C281.098 348.198 280.306 350.782 278.723 352.532C277.181 354.282 275.161 355.157 272.661 355.157C270.119 355.157 268.056 354.261 266.473 352.469C264.89 350.677 264.098 348.115 264.098 344.782V316.344C264.098 310.719 263.306 306.427 261.723 303.469C260.181 300.469 257.077 298.969 252.411 298.969C249.369 298.969 246.598 299.886 244.098 301.719C241.598 303.511 239.765 305.99 238.598 309.157C237.765 311.698 237.348 316.448 237.348 323.407V344.782C237.348 348.24 236.536 350.844 234.911 352.594C233.327 354.302 231.265 355.157 228.723 355.157C226.265 355.157 224.244 354.261 222.661 352.469C221.077 350.677 220.286 348.115 220.286 344.782V295.469C220.286 292.219 220.994 289.802 222.411 288.219C223.827 286.594 225.765 285.782 228.223 285.782C229.723 285.782 231.077 286.136 232.286 286.844C233.494 287.552 234.452 288.615 235.161 290.032C235.911 291.448 236.286 293.177 236.286 295.219ZM313.911 357.282L315.473 353.469L294.473 300.594C293.181 297.552 292.536 295.344 292.536 293.969C292.536 292.511 292.911 291.157 293.661 289.907C294.411 288.657 295.431 287.657 296.723 286.907C298.056 286.157 299.431 285.782 300.848 285.782C303.306 285.782 305.161 286.573 306.411 288.157C307.661 289.698 308.765 291.927 309.723 294.844L324.161 336.844L337.848 297.782C338.931 294.615 339.911 292.136 340.786 290.344C341.661 288.552 342.577 287.344 343.536 286.719C344.536 286.094 345.931 285.782 347.723 285.782C349.015 285.782 350.244 286.136 351.411 286.844C352.619 287.511 353.536 288.427 354.161 289.594C354.827 290.761 355.161 291.99 355.161 293.282C354.994 294.073 354.723 295.198 354.348 296.657C353.973 298.115 353.515 299.594 352.973 301.094L330.723 359.344C328.806 364.469 326.931 368.49 325.098 371.407C323.265 374.323 320.827 376.552 317.786 378.094C314.786 379.677 310.723 380.469 305.598 380.469C300.598 380.469 296.848 379.927 294.348 378.844C291.848 377.761 290.598 375.782 290.598 372.907C290.598 370.948 291.181 369.427 292.348 368.344C293.556 367.302 295.327 366.782 297.661 366.782C298.577 366.782 299.473 366.907 300.348 367.157C301.431 367.407 302.369 367.532 303.161 367.532C305.119 367.532 306.661 367.24 307.786 366.657C308.911 366.073 309.911 365.052 310.786 363.594C311.702 362.177 312.744 360.073 313.911 357.282ZM411.848 345.532V343.344C409.806 345.927 407.661 348.094 405.411 349.844C403.161 351.594 400.702 352.886 398.036 353.719C395.369 354.594 392.327 355.032 388.911 355.032C384.786 355.032 381.077 354.177 377.786 352.469C374.536 350.761 372.015 348.407 370.223 345.407C368.098 341.782 367.036 336.573 367.036 329.782V295.969C367.036 292.552 367.806 290.011 369.348 288.344C370.89 286.636 372.931 285.782 375.473 285.782C378.056 285.782 380.14 286.636 381.723 288.344C383.306 290.052 384.098 292.594 384.098 295.969V323.282C384.098 327.24 384.431 330.573 385.098 333.282C385.765 335.948 386.952 338.052 388.661 339.594C390.411 341.094 392.765 341.844 395.723 341.844C398.598 341.844 401.306 340.99 403.848 339.282C406.39 337.573 408.244 335.344 409.411 332.594C410.369 330.177 410.848 324.886 410.848 316.719V295.969C410.848 292.594 411.64 290.052 413.223 288.344C414.806 286.636 416.869 285.782 419.411 285.782C421.952 285.782 423.994 286.636 425.536 288.344C427.077 290.011 427.848 292.552 427.848 295.969V345.407C427.848 348.657 427.098 351.094 425.598 352.719C424.14 354.344 422.244 355.157 419.911 355.157C417.577 355.157 415.64 354.323 414.098 352.657C412.598 350.948 411.848 348.573 411.848 345.532ZM501.661 321.719V344.407C501.661 347.99 500.848 350.677 499.223 352.469C497.598 354.261 495.452 355.157 492.786 355.157C490.202 355.157 488.098 354.261 486.473 352.469C484.89 350.677 484.098 347.99 484.098 344.407V317.219C484.098 312.927 483.952 309.594 483.661 307.219C483.369 304.844 482.577 302.907 481.286 301.407C479.994 299.865 477.952 299.094 475.161 299.094C469.577 299.094 465.89 301.011 464.098 304.844C462.348 308.677 461.473 314.177 461.473 321.344V344.407C461.473 347.948 460.661 350.636 459.036 352.469C457.452 354.261 455.348 355.157 452.723 355.157C450.14 355.157 448.015 354.261 446.348 352.469C444.723 350.636 443.911 347.948 443.911 344.407V295.594C443.911 292.386 444.64 289.948 446.098 288.282C447.598 286.615 449.556 285.782 451.973 285.782C454.306 285.782 456.244 286.573 457.786 288.157C459.369 289.698 460.161 291.844 460.161 294.594V296.219C463.119 292.677 466.286 290.073 469.661 288.407C473.036 286.74 476.786 285.907 480.911 285.907C485.202 285.907 488.89 286.761 491.973 288.469C495.056 290.177 497.598 292.761 499.598 296.219C502.473 292.719 505.556 290.136 508.848 288.469C512.14 286.761 515.786 285.907 519.786 285.907C524.452 285.907 528.473 286.823 531.848 288.657C535.223 290.49 537.744 293.115 539.411 296.532C540.869 299.615 541.598 304.469 541.598 311.094V344.407C541.598 347.99 540.786 350.677 539.161 352.469C537.536 354.261 535.39 355.157 532.723 355.157C530.14 355.157 528.015 354.261 526.348 352.469C524.723 350.636 523.911 347.948 523.911 344.407V315.719C523.911 312.052 523.744 309.115 523.411 306.907C523.119 304.698 522.286 302.844 520.911 301.344C519.536 299.844 517.452 299.094 514.661 299.094C512.411 299.094 510.265 299.761 508.223 301.094C506.223 302.427 504.661 304.219 503.536 306.469C502.286 309.344 501.661 314.427 501.661 321.719ZM573.911 270.157V296.219C577.119 292.886 580.39 290.344 583.723 288.594C587.056 286.802 591.181 285.907 596.098 285.907C601.765 285.907 606.723 287.261 610.973 289.969C615.265 292.636 618.577 296.532 620.911 301.657C623.286 306.74 624.473 312.782 624.473 319.782C624.473 324.948 623.806 329.698 622.473 334.032C621.181 338.323 619.286 342.052 616.786 345.219C614.286 348.386 611.244 350.844 607.661 352.594C604.119 354.302 600.202 355.157 595.911 355.157C593.286 355.157 590.806 354.844 588.473 354.219C586.181 353.594 584.223 352.782 582.598 351.782C580.973 350.74 579.577 349.677 578.411 348.594C577.286 347.511 575.786 345.886 573.911 343.719V345.407C573.911 348.615 573.14 351.052 571.598 352.719C570.056 354.344 568.098 355.157 565.723 355.157C563.306 355.157 561.369 354.344 559.911 352.719C558.494 351.052 557.786 348.615 557.786 345.407V270.907C557.786 267.448 558.473 264.844 559.848 263.094C561.265 261.302 563.223 260.407 565.723 260.407C568.348 260.407 570.369 261.261 571.786 262.969C573.202 264.636 573.911 267.032 573.911 270.157ZM574.723 320.844C574.723 327.636 576.265 332.865 579.348 336.532C582.473 340.157 586.556 341.969 591.598 341.969C595.89 341.969 599.577 340.115 602.661 336.407C605.786 332.657 607.348 327.302 607.348 320.344C607.348 315.844 606.702 311.969 605.411 308.719C604.119 305.469 602.286 302.969 599.911 301.219C597.536 299.427 594.765 298.532 591.598 298.532C588.348 298.532 585.452 299.427 582.911 301.219C580.369 302.969 578.369 305.532 576.911 308.907C575.452 312.24 574.723 316.219 574.723 320.844ZM681.286 345.532C677.161 348.74 673.161 351.157 669.286 352.782C665.452 354.365 661.14 355.157 656.348 355.157C651.973 355.157 648.119 354.302 644.786 352.594C641.494 350.844 638.952 348.49 637.161 345.532C635.369 342.573 634.473 339.365 634.473 335.907C634.473 331.24 635.952 327.261 638.911 323.969C641.869 320.677 645.931 318.469 651.098 317.344C652.181 317.094 654.869 316.532 659.161 315.657C663.452 314.782 667.119 313.99 670.161 313.282C673.244 312.532 676.577 311.636 680.161 310.594C679.952 306.094 679.036 302.802 677.411 300.719C675.827 298.594 672.515 297.532 667.473 297.532C663.14 297.532 659.869 298.136 657.661 299.344C655.494 300.552 653.619 302.365 652.036 304.782C650.494 307.198 649.39 308.802 648.723 309.594C648.098 310.344 646.723 310.719 644.598 310.719C642.681 310.719 641.015 310.115 639.598 308.907C638.223 307.657 637.536 306.073 637.536 304.157C637.536 301.157 638.598 298.24 640.723 295.407C642.848 292.573 646.161 290.24 650.661 288.407C655.161 286.573 660.765 285.657 667.473 285.657C674.973 285.657 680.869 286.552 685.161 288.344C689.452 290.094 692.473 292.886 694.223 296.719C696.015 300.552 696.911 305.636 696.911 311.969C696.911 315.969 696.89 319.365 696.848 322.157C696.848 324.948 696.827 328.052 696.786 331.469C696.786 334.677 697.306 338.032 698.348 341.532C699.431 344.99 699.973 347.219 699.973 348.219C699.973 349.969 699.14 351.573 697.473 353.032C695.848 354.448 693.994 355.157 691.911 355.157C690.161 355.157 688.431 354.344 686.723 352.719C685.015 351.052 683.202 348.657 681.286 345.532ZM680.161 320.844C677.661 321.761 674.015 322.74 669.223 323.782C664.473 324.782 661.181 325.532 659.348 326.032C657.515 326.49 655.765 327.427 654.098 328.844C652.431 330.219 651.598 332.157 651.598 334.657C651.598 337.24 652.577 339.448 654.536 341.282C656.494 343.073 659.056 343.969 662.223 343.969C665.598 343.969 668.702 343.24 671.536 341.782C674.411 340.282 676.515 338.365 677.848 336.032C679.39 333.448 680.161 329.198 680.161 323.282V320.844ZM729.786 295.219V297.282C732.786 293.323 736.056 290.427 739.598 288.594C743.181 286.719 747.286 285.782 751.911 285.782C756.411 285.782 760.431 286.761 763.973 288.719C767.515 290.677 770.161 293.448 771.911 297.032C773.036 299.115 773.765 301.365 774.098 303.782C774.431 306.198 774.598 309.282 774.598 313.032V344.782C774.598 348.198 773.806 350.782 772.223 352.532C770.681 354.282 768.661 355.157 766.161 355.157C763.619 355.157 761.556 354.261 759.973 352.469C758.39 350.677 757.598 348.115 757.598 344.782V316.344C757.598 310.719 756.806 306.427 755.223 303.469C753.681 300.469 750.577 298.969 745.911 298.969C742.869 298.969 740.098 299.886 737.598 301.719C735.098 303.511 733.265 305.99 732.098 309.157C731.265 311.698 730.848 316.448 730.848 323.407V344.782C730.848 348.24 730.036 350.844 728.411 352.594C726.827 354.302 724.765 355.157 722.223 355.157C719.765 355.157 717.744 354.261 716.161 352.469C714.577 350.677 713.786 348.115 713.786 344.782V295.469C713.786 292.219 714.494 289.802 715.911 288.219C717.327 286.594 719.265 285.782 721.723 285.782C723.223 285.782 724.577 286.136 725.786 286.844C726.994 287.552 727.952 288.615 728.661 290.032C729.411 291.448 729.786 293.177 729.786 295.219ZM808.723 295.469V344.782C808.723 348.198 807.911 350.782 806.286 352.532C804.661 354.282 802.598 355.157 800.098 355.157C797.598 355.157 795.556 354.261 793.973 352.469C792.431 350.677 791.661 348.115 791.661 344.782V295.969C791.661 292.594 792.431 290.052 793.973 288.344C795.556 286.636 797.598 285.782 800.098 285.782C802.598 285.782 804.661 286.636 806.286 288.344C807.911 290.052 808.723 292.427 808.723 295.469ZM800.286 277.844C797.911 277.844 795.869 277.115 794.161 275.657C792.494 274.198 791.661 272.136 791.661 269.469C791.661 267.052 792.515 265.073 794.223 263.532C795.973 261.948 797.994 261.157 800.286 261.157C802.494 261.157 804.452 261.865 806.161 263.282C807.869 264.698 808.723 266.761 808.723 269.469C808.723 272.094 807.89 274.157 806.223 275.657C804.556 277.115 802.577 277.844 800.286 277.844Z" fill="white"/>
<path d="M414.484 430.863C415.492 431.128 416.234 431.579 416.712 432.215C417.189 432.798 417.428 433.435 417.428 434.124C417.428 434.761 417.216 435.371 416.791 435.954C416.367 436.485 415.757 436.909 414.961 437.227V449.161C414.961 450.328 414.564 451.309 413.768 452.105C413.026 452.9 412.31 453.643 411.62 454.332C409.923 456.029 407.907 457.249 405.574 457.992C403.293 458.787 400.959 459.185 398.573 459.185C394.701 459.185 391.306 458.39 388.389 456.798C385.472 455.154 383.032 453.112 381.07 450.672C379.16 448.18 377.702 445.475 376.694 442.558C375.739 439.64 375.262 436.856 375.262 434.204C375.262 432.666 375.448 430.995 375.819 429.192C376.19 427.389 376.747 425.612 377.49 423.861C378.285 422.111 379.266 420.467 380.433 418.929C381.6 417.391 382.979 416.118 384.57 415.11C387.434 413.254 390.352 411.742 393.322 410.575C396.345 409.355 399.421 408.745 402.55 408.745C403.452 408.745 404.539 408.851 405.812 409.064C407.085 409.223 408.305 409.514 409.472 409.939C410.692 410.31 411.726 410.84 412.575 411.53C413.423 412.219 413.848 413.068 413.848 414.076C413.848 414.924 413.556 415.64 412.973 416.224C412.389 416.807 411.647 417.099 410.745 417.099C410.268 417.099 409.711 416.993 409.074 416.781C408.438 416.569 407.748 416.356 407.006 416.144C406.316 415.879 405.574 415.64 404.778 415.428C404.036 415.216 403.293 415.11 402.55 415.11C402.02 415.11 401.516 415.137 401.039 415.19C400.561 415.243 400.084 415.349 399.607 415.508C397.538 416.144 395.443 416.913 393.322 417.815C391.2 418.664 389.264 419.804 387.514 421.236C385.817 422.668 384.438 424.445 383.377 426.566C382.316 428.635 381.786 431.234 381.786 434.363C381.786 436.909 382.237 439.322 383.138 441.603C384.04 443.83 385.233 445.766 386.718 447.411C388.203 449.055 389.927 450.354 391.89 451.309C393.852 452.264 395.894 452.741 398.016 452.741C399.872 452.741 401.702 452.37 403.505 451.627C405.308 450.885 406.953 449.771 408.438 448.286V437.466C406.422 437.519 404.407 437.545 402.391 437.545C400.429 437.545 398.44 437.545 396.424 437.545C395.258 437.386 394.382 436.989 393.799 436.352C393.269 435.716 393.003 435.026 393.003 434.284C393.003 433.541 393.295 432.825 393.879 432.135C394.515 431.393 395.443 431.022 396.663 431.022C397.194 431.022 398.307 431.022 400.005 431.022C401.755 430.969 403.611 430.942 405.574 430.942C407.536 430.942 409.366 430.942 411.063 430.942C412.813 430.889 413.954 430.863 414.484 430.863ZM431.826 455.287C431.773 456.507 431.402 457.408 430.712 457.992C430.076 458.628 429.36 458.947 428.564 458.947C427.821 458.947 427.132 458.655 426.496 458.071C425.859 457.541 425.461 456.692 425.302 455.526V417.576C424.454 417.47 423.764 417.152 423.234 416.622C422.756 416.038 422.518 415.349 422.518 414.553C422.518 414.076 422.624 413.572 422.836 413.042C423.101 412.511 423.499 412.034 424.029 411.609C426.31 410.177 428.856 409.037 431.667 408.189C434.478 407.287 437.315 406.836 440.18 406.836C442.513 406.836 444.741 407.154 446.862 407.791C449.037 408.427 451.026 409.461 452.829 410.893C454.951 412.591 456.489 414.447 457.444 416.463C458.398 418.478 458.876 420.547 458.876 422.668C458.876 424.365 458.584 426.036 458.001 427.68C457.47 429.324 456.701 430.889 455.693 432.374C454.686 433.806 453.466 435.132 452.034 436.352C450.655 437.519 449.09 438.5 447.34 439.296C449.355 441.576 451.53 443.99 453.863 446.535C456.197 449.081 458.372 451.468 460.387 453.696C460.971 454.438 461.262 455.26 461.262 456.162C461.262 457.064 460.971 457.78 460.387 458.31C459.804 458.893 459.088 459.185 458.239 459.185C457.815 459.185 457.338 459.079 456.807 458.867C456.33 458.708 455.879 458.39 455.455 457.912C455.136 457.541 454.58 456.931 453.784 456.082C452.988 455.181 452.087 454.2 451.079 453.139C450.071 452.025 449.01 450.858 447.897 449.638C446.783 448.365 445.722 447.198 444.714 446.138C443.76 445.024 442.884 444.043 442.089 443.194C441.293 442.345 440.736 441.735 440.418 441.364C438.986 441.629 437.554 441.815 436.122 441.921C434.69 442.027 433.258 442.107 431.826 442.16V455.287ZM448.613 415.826C447.34 414.924 445.934 414.288 444.396 413.917C442.911 413.545 441.373 413.36 439.782 413.36C438.403 413.36 437.05 413.492 435.724 413.758C434.398 414.023 433.099 414.394 431.826 414.871V435.636C433.841 435.53 435.857 435.371 437.872 435.159C439.888 434.947 441.877 434.469 443.839 433.727C445.006 433.302 446.093 432.692 447.101 431.897C448.162 431.101 449.09 430.2 449.886 429.192C450.681 428.184 451.291 427.123 451.715 426.009C452.193 424.843 452.431 423.702 452.431 422.589C452.431 421.369 452.14 420.175 451.556 419.008C450.973 417.842 449.992 416.781 448.613 415.826ZM496.804 449.32C497.812 449.267 498.634 449.479 499.271 449.956C499.96 450.381 500.384 450.938 500.543 451.627C500.756 452.264 500.703 452.953 500.384 453.696C500.119 454.385 499.536 454.995 498.634 455.526C496.725 456.056 494.683 456.48 492.508 456.798C490.334 457.117 488.132 457.329 485.905 457.435C483.677 457.488 481.476 457.435 479.301 457.276C477.127 457.117 475.058 456.798 473.096 456.321C472.247 455.897 471.637 455.393 471.266 454.809C470.895 454.173 470.736 453.563 470.789 452.98V452.9V417.974C470.099 417.762 469.569 417.391 469.198 416.86C468.826 416.33 468.641 415.747 468.641 415.11C468.641 414.474 468.853 413.864 469.277 413.28C469.701 412.644 470.364 412.166 471.266 411.848C473.335 411.212 475.43 410.787 477.551 410.575C479.726 410.31 481.9 410.151 484.075 410.098C486.25 409.992 488.424 409.939 490.599 409.939C492.773 409.939 494.921 409.886 497.043 409.78C498.21 409.727 499.111 409.992 499.748 410.575C500.437 411.159 500.835 411.822 500.941 412.564C501.047 413.307 500.835 414.049 500.305 414.792C499.827 415.481 499.005 415.959 497.838 416.224C494.656 416.383 491.262 416.436 487.655 416.383C484.101 416.33 480.654 416.569 477.313 417.099V431.101C480.071 431.207 482.829 431.207 485.587 431.101C488.398 430.942 491.209 430.73 494.02 430.465C495.187 430.412 496.088 430.677 496.725 431.26C497.414 431.844 497.812 432.507 497.918 433.249C498.024 433.992 497.812 434.734 497.282 435.477C496.804 436.166 495.982 436.644 494.815 436.909C491.898 437.174 488.955 437.386 485.984 437.545C483.067 437.705 480.177 437.731 477.313 437.625V450.513C480.495 450.991 483.783 451.123 487.178 450.911C490.625 450.646 493.834 450.116 496.804 449.32ZM536.179 449.32C537.187 449.267 538.009 449.479 538.646 449.956C539.335 450.381 539.759 450.938 539.918 451.627C540.131 452.264 540.078 452.953 539.759 453.696C539.494 454.385 538.911 454.995 538.009 455.526C536.1 456.056 534.058 456.48 531.883 456.798C529.709 457.117 527.507 457.329 525.28 457.435C523.052 457.488 520.851 457.435 518.676 457.276C516.502 457.117 514.433 456.798 512.471 456.321C511.622 455.897 511.012 455.393 510.641 454.809C510.27 454.173 510.111 453.563 510.164 452.98V452.9V417.974C509.474 417.762 508.944 417.391 508.573 416.86C508.201 416.33 508.016 415.747 508.016 415.11C508.016 414.474 508.228 413.864 508.652 413.28C509.076 412.644 509.739 412.166 510.641 411.848C512.71 411.212 514.805 410.787 516.926 410.575C519.101 410.31 521.275 410.151 523.45 410.098C525.625 409.992 527.799 409.939 529.974 409.939C532.148 409.939 534.296 409.886 536.418 409.78C537.585 409.727 538.486 409.992 539.123 410.575C539.812 411.159 540.21 411.822 540.316 412.564C540.422 413.307 540.21 414.049 539.68 414.792C539.202 415.481 538.38 415.959 537.213 416.224C534.031 416.383 530.637 416.436 527.03 416.383C523.476 416.33 520.029 416.569 516.688 417.099V431.101C519.446 431.207 522.204 431.207 524.962 431.101C527.773 430.942 530.584 430.73 533.395 430.465C534.562 430.412 535.463 430.677 536.1 431.26C536.789 431.844 537.187 432.507 537.293 433.249C537.399 433.992 537.187 434.734 536.657 435.477C536.179 436.166 535.357 436.644 534.19 436.909C531.273 437.174 528.33 437.386 525.359 437.545C522.442 437.705 519.552 437.731 516.688 437.625V450.513C519.87 450.991 523.158 451.123 526.553 450.911C530 450.646 533.209 450.116 536.179 449.32ZM580.407 410.973C580.672 409.912 581.097 409.117 581.68 408.586C582.264 408.056 582.927 407.791 583.669 407.791C584.359 407.791 584.995 408.029 585.579 408.507C586.215 408.984 586.666 409.727 586.931 410.734C586.931 418.319 586.878 425.665 586.772 432.772C586.666 439.879 586.401 447.225 585.976 454.809C585.976 454.809 586.003 454.836 586.056 454.889H585.976C585.923 455.154 585.897 455.393 585.897 455.605C585.897 455.764 585.897 455.95 585.897 456.162C585.579 457.011 585.128 457.647 584.544 458.071C584.014 458.496 583.43 458.708 582.794 458.708C581.839 458.708 580.938 458.284 580.089 457.435C579.983 457.223 579.877 457.037 579.771 456.878C579.665 456.719 579.559 456.56 579.453 456.401H579.373V456.242C577.464 453.006 575.501 449.93 573.486 447.013C571.47 444.043 569.402 441.152 567.28 438.341C565.159 435.477 562.984 432.666 560.756 429.908C558.582 427.097 556.328 424.233 553.994 421.316C553.994 424.127 553.994 426.858 553.994 429.51C553.994 432.109 553.994 434.761 553.994 437.466C553.994 440.118 553.994 442.902 553.994 445.819C554.047 448.737 554.074 451.892 554.074 455.287C554.021 456.507 553.649 457.408 552.96 457.992C552.323 458.628 551.607 458.947 550.812 458.947C550.069 458.947 549.38 458.655 548.743 458.071C548.107 457.541 547.709 456.692 547.55 455.526C547.55 448.365 547.523 441.126 547.47 433.806C547.47 426.434 547.47 419.168 547.47 412.007C547.682 411.053 548.08 410.31 548.664 409.78C549.247 409.249 549.91 408.984 550.653 408.984C551.395 408.984 552.191 409.276 553.039 409.859C555.479 412.776 557.866 415.64 560.2 418.451C562.533 421.209 564.814 423.994 567.042 426.805C569.322 429.616 571.523 432.507 573.645 435.477C575.766 438.394 577.835 441.444 579.85 444.626C580.063 438.792 580.195 433.196 580.248 427.839C580.354 422.482 580.407 416.86 580.407 410.973ZM596.55 451.548C596.232 450.805 596.073 450.116 596.073 449.479C596.073 448.577 596.338 447.861 596.868 447.331C597.452 446.748 598.168 446.456 599.016 446.456C599.865 446.456 600.687 446.748 601.483 447.331C602.384 448.392 603.419 449.293 604.585 450.036C605.805 450.726 607.078 451.282 608.404 451.707C609.783 452.078 611.162 452.343 612.541 452.502C613.973 452.661 615.352 452.741 616.678 452.741C617.58 452.423 618.19 452.237 618.508 452.184C618.879 452.078 619.171 451.972 619.383 451.866C619.595 451.76 619.834 451.601 620.099 451.389C620.364 451.176 620.868 450.805 621.611 450.275C621.876 449.903 622.115 449.559 622.327 449.24C622.539 448.922 622.778 448.577 623.043 448.206L623.759 446.058C623.759 445.687 623.759 445.342 623.759 445.024C623.759 444.653 623.732 444.255 623.679 443.83C623.573 443.459 623.441 443.114 623.282 442.796C623.122 442.425 622.963 442.054 622.804 441.682C622.486 441.311 622.168 440.966 621.85 440.648C621.584 440.33 621.293 439.985 620.974 439.614C620.497 439.349 620.02 439.057 619.542 438.739C619.065 438.421 618.535 438.182 617.951 438.023C615.777 437.28 613.761 436.776 611.905 436.511C610.101 436.193 608.378 435.822 606.734 435.397C605.142 434.92 603.631 434.204 602.199 433.249C600.767 432.295 599.361 430.756 597.982 428.635C597.717 428.211 597.558 427.892 597.505 427.68C597.452 427.468 597.399 427.097 597.346 426.566C597.293 426.142 597.24 425.744 597.187 425.373C597.187 424.949 597.187 424.551 597.187 424.18C597.187 423.225 597.266 422.376 597.425 421.634C597.637 420.891 597.929 420.175 598.3 419.486C598.672 418.796 599.149 418.107 599.732 417.417C600.316 416.675 601.005 415.879 601.801 415.03C602.703 414.076 603.737 413.307 604.904 412.723C606.071 412.087 607.29 411.609 608.563 411.291C609.836 410.92 611.136 410.681 612.462 410.575C613.841 410.416 615.167 410.337 616.44 410.337C616.864 410.337 617.235 410.337 617.553 410.337C617.925 410.337 618.296 410.363 618.667 410.416C619.887 410.522 621.027 410.814 622.088 411.291C623.202 411.769 624.342 412.166 625.509 412.485C626.729 413.333 627.339 414.368 627.339 415.587C627.339 416.383 627.021 417.099 626.384 417.735C625.801 418.319 624.952 418.611 623.838 418.611C623.732 418.611 623.6 418.611 623.441 418.611C623.335 418.558 623.229 418.531 623.122 418.531C621.425 418.001 619.914 417.603 618.588 417.338C617.315 417.019 616.068 416.86 614.848 416.86C613.575 416.86 612.276 417.072 610.95 417.497C609.624 417.921 608.086 418.637 606.336 419.645C606.017 420.069 605.699 420.467 605.381 420.838C605.063 421.156 604.745 421.501 604.426 421.872C604.267 422.191 604.108 422.509 603.949 422.827C603.843 423.145 603.737 423.464 603.631 423.782C603.631 424.1 603.631 424.418 603.631 424.737C603.684 425.055 603.737 425.347 603.79 425.612C604.002 425.877 604.188 426.142 604.347 426.407C604.506 426.672 604.692 426.938 604.904 427.203L608.245 429.112C609.836 429.484 611.321 429.802 612.7 430.067C614.079 430.332 615.405 430.65 616.678 431.022C617.951 431.34 619.198 431.738 620.417 432.215C621.69 432.692 623.043 433.329 624.475 434.124C625.217 434.549 625.854 435.106 626.384 435.795C626.915 436.432 627.419 437.042 627.896 437.625C628.745 438.633 629.354 439.773 629.726 441.046C630.15 442.319 630.362 443.645 630.362 445.024C630.362 446.933 629.991 448.79 629.248 450.593C628.506 452.396 627.445 453.881 626.066 455.048C625.589 455.472 625.085 455.87 624.555 456.242C624.077 456.56 623.6 456.878 623.122 457.196C622.009 457.939 620.762 458.496 619.383 458.867C618.004 459.238 616.546 459.424 615.008 459.424C613.257 459.424 611.48 459.212 609.677 458.787C607.927 458.416 606.23 457.886 604.585 457.196C602.941 456.454 601.43 455.605 600.051 454.65C598.672 453.696 597.505 452.661 596.55 451.548Z" fill="white"/>
<path d="M416.707 156.013C419.008 156.537 421.14 157.427 423.329 158.336C423.82 158.538 424.311 158.741 424.817 158.948C425.816 159.361 426.815 159.778 427.814 160.199C429.071 160.729 430.334 161.249 431.596 161.765C439.061 164.88 446.637 168.5 452.811 173.832C453.877 174.803 453.877 174.803 454.989 175.482C455.926 176.094 455.926 176.094 457.295 177.603C457.422 178.765 457.422 178.765 457.431 180.185C457.739 184.478 459.373 188.155 461.012 192.139C461.535 193.397 462.045 194.665 462.555 195.928C464.295 200.21 466.136 204.459 468.095 208.612C468.275 208.999 468.456 209.386 468.642 209.785C470.427 213.545 472.621 217.025 475.04 220.392C475.434 220.97 475.434 220.97 475.837 221.559C476.184 222.042 476.184 222.042 476.538 222.536C477.178 224.203 476.858 225.286 476.398 226.998C472.206 235.248 466.801 240.804 458.214 244.34C448.841 247.242 437.561 246.17 428.132 243.814C427.548 243.674 427.548 243.674 426.948 243.531C418.08 241.376 410.784 237.638 403.993 231.464C403.645 231.155 403.297 230.847 402.938 230.527C385.034 213.69 378.356 187.368 376.953 163.74C376.834 159.435 376.834 159.435 377.755 158.195C379.102 157.162 379.882 157.246 381.566 157.302C382.138 157.317 382.711 157.332 383.3 157.348C383.918 157.372 384.535 157.397 385.169 157.422C385.803 157.439 386.443 157.457 387.094 157.475C389.131 157.531 391.169 157.599 393.212 157.67C395.243 157.737 397.269 157.801 399.329 157.858C400.592 157.894 401.855 157.936 403.117 157.983C407.922 158.122 412.546 155.34 416.812 156.013H416.707Z" fill="#5EDD03"/>
<path d="M631.286 156.921C628.155 156.876 625.021 156.944 621.837 157.161C619.107 157.358 616.433 157.459 613.709 157.434C612.681 157.413 611.659 157.409 610.632 157.434C609.294 157.794 608.388 157.974 606.986 157.912C606.45 157.854 605.935 157.798 605.414 157.741C605.302 157.73 605.191 157.719 605.079 157.707C598.66 161.784 591.465 164.585 583.906 165.7C579.453 166.2 577.125 167.054 577.751 166.674C578.185 166.41 576.225 167.235 576.648 166.981C576.974 166.78 575.26 167.418 575.577 167.22C575.759 167.592 572.491 167.97 572.667 168.33C571.634 169.036 570.618 169.762 569.607 170.5C569.039 170.926 568.486 171.332 567.934 171.746C566.179 173.047 564.714 174.275 563.285 175.948C562.841 176.516 562.394 177.07 561.964 177.622C556.451 184.016 551.219 190.629 547.681 198.39C547.436 198.953 547.198 199.5 546.962 200.047C543.906 206.988 542.132 213.714 541.995 221.311C541.992 221.802 541.981 222.285 541.978 222.762C541.941 228.173 542.781 233.274 546.126 237.69C551.745 243.882 560.893 246.679 568.921 247.032C569.467 247.041 569.995 247.04 570.527 247.049C575.022 247.186 579.453 247.002 583.906 246.503C598.356 244.371 611.518 236.228 620.348 224.368C620.691 223.909 621.022 223.466 621.352 223.018C631.253 210.011 638.741 194.821 643.194 178.971C643.825 176.692 644.48 174.455 645.234 172.242C646.685 168.033 648.519 163.632 648.094 159.073C647.024 157.981 647.017 157.983 645.786 157.758C645.267 157.717 644.772 157.679 644.264 157.639C643.686 157.591 643.12 157.548 642.558 157.502C641.937 157.458 641.335 157.408 640.735 157.366C637.551 157.126 634.417 156.967 631.286 156.921Z" fill="#5EDD03"/>
<path d="M514.686 97.562C513.141 97.715 513.161 97.729 512.186 98.562C511.816 98.948 511.453 99.31 511.092 99.687C510.679 100.115 510.274 100.552 509.873 100.968C509.435 101.432 509.015 101.864 508.592 102.312C506.335 104.685 504.164 107.077 502.092 109.531C500.02 111.984 498.026 114.493 496.123 117.156C494.501 119.446 492.852 121.637 491.061 123.781C490.376 124.582 489.71 125.388 489.061 126.218C488.47 127.509 488.021 128.365 487.061 129.437C486.667 129.824 486.288 130.184 485.904 130.562C485.823 130.643 483.464 133.91 483.383 133.991C482.074 137.067 480.492 140.977 480.492 140.977C480.492 140.977 474.73 158.926 474.842 158.187C474.919 157.676 474.295 159.746 474.373 159.25C474.429 158.863 473.789 160.627 473.842 160.25C474.249 160.342 472.447 163.191 472.842 163.281C472.718 164.549 472.614 165.821 472.529 167.093C472.492 167.815 472.441 168.517 472.404 169.218C472.273 171.439 472.285 173.364 472.654 175.562C472.807 176.276 472.943 176.994 473.092 177.687C474.473 186.131 476.209 194.501 479.936 202.25C480.213 202.803 480.477 203.339 480.748 203.875C484.151 210.719 488.219 216.396 494.029 221.343C494.409 221.659 494.786 221.975 495.154 222.281C499.332 225.757 503.831 228.339 509.436 228.5C511.002 228.405 515.298 228.722 516.826 228.314C516.827 228.272 523.467 228.092 523.467 228.049C523.604 220.452 523.591 207.128 526.647 200.187C526.883 199.641 530.995 191.599 531.24 191.036C531.24 191.036 534.898 182.63 535.342 182.062C536.771 180.39 538.243 179.175 539.998 177.875C540.549 177.46 541.087 177.051 541.654 176.625C542.666 175.887 543.684 175.173 544.717 174.468C544.54 174.108 549.107 170.604 548.925 170.232C548.608 170.429 548.272 165.061 547.342 161.156C547.208 160.592 547.1 160.046 546.967 159.5C543.304 143.363 536.38 127.751 526.967 114.125C525.608 112.172 524.289 110.227 523.061 108.218C520.736 104.388 518.502 100.128 514.686 97.562Z" fill="#FAC202"/>
</g>
<defs>
<clipPath id="clip0_31_3">
<rect width="1005.91" height="627.199" fill="white"/>
</clipPath>
</defs>
</svg>
